<?xml version="1.0" encoding="UTF-8"?>
<svg version="1.1" xmlns="http://www.w3.org/2000/svg" width="160" height="138">
<path d="M0 0 C1.5 1.1875 1.5 1.1875 3 3 C2.95230469 3.804375 2.90460938 4.60875 2.85546875 5.4375 C2.71208178 8.06869856 2.71208178 8.06869856 4.58203125 9.51953125 C5.31808594 9.94621094 6.05414063 10.37289062 6.8125 10.8125 C8.03453125 11.56466797 8.03453125 11.56466797 9.28125 12.33203125 C10.1784375 12.88246094 11.075625 13.43289062 12 14 C24.84643644 22.61609111 24.84643644 22.61609111 27.75 29.875 C29.08830493 41.25059194 24.84758614 48.39925635 18.20703125 57.44140625 C15.88631301 60.13179643 13.68674226 61.79971668 10.6875 63.6875 C9.78386719 64.26886719 8.88023438 64.85023437 7.94921875 65.44921875 C1.49080592 68.84523185 -4.54641703 69.35931565 -11.6875 69.3125 C-12.57091064 69.30758545 -13.45432129 69.3026709 -14.36450195 69.29760742 C-25.73805764 69.09456399 -36.63933435 66.92981842 -45.19140625 58.95703125 C-52.21188819 51.44524487 -56.45717306 43.77277905 -56.26953125 33.3671875 C-55.48266706 26.45646725 -51.54578394 22.01994643 -46.359375 17.7109375 C-43.72932462 15.80371553 -40.99143582 14.20183814 -38.1875 12.5625 C-34.43874482 10.27794006 -32.35086651 8.72341512 -30.8125 4.5625 C-30.544375 3.386875 -30.27625 2.21125 -30 1 C-28.1875 1.25 -28.1875 1.25 -26 2 C-25.59652344 2.66902344 -25.19304687 3.33804688 -24.77734375 4.02734375 C-23.00141371 6.42035885 -23.00141371 6.42035885 -19.12890625 6.56640625 C-17.60690042 6.58631042 -16.08448094 6.58422433 -14.5625 6.5625 C-13.79873047 6.58634766 -13.03496094 6.61019531 -12.24804688 6.63476562 C-10.04413513 6.62901129 -8.13760838 6.54152746 -6 6 C-3.54892516 3.65811363 -3.54892516 3.65811363 -2 1 C-1.34 0.67 -0.68 0.34 0 0 Z " fill="#F8890D" transform="translate(94,42)"/>
<path d="M0 0 C1.33210237 0.71460445 2.6475492 1.46184824 3.9375 2.25 C4.96875 2.848125 6 3.44625 7.0625 4.0625 C15.03489555 10.12845314 19.75157978 16.69223934 22.9375 26.25 C23.41372777 31.29333018 23.76249545 35.72693148 21.3125 40.25 C15.78256701 44.90678568 11.09010409 45.94402065 3.9453125 45.70703125 C-1.17817156 44.92852783 -4.20173585 42.58231817 -8.0625 39.25 C-8.58021973 38.82074219 -9.09793945 38.39148437 -9.63134766 37.94921875 C-16.56713589 32.16640823 -23.57044743 26.31529269 -26.0625 17.25 C-25.7325 16.59 -25.4025 15.93 -25.0625 15.25 C-21.93970578 16.42104783 -19.05157709 17.790941 -16.125 19.375 C-12.63858773 21.16120742 -10.02626332 21.64637633 -6.0625 21.25 C-6.86068031 16.79119964 -7.5781338 14.23563004 -11.21484375 11.4140625 C-12.46337812 10.54837692 -13.72565871 9.7022266 -15 8.875 C-15.63357422 8.43800781 -16.26714844 8.00101563 -16.91992188 7.55078125 C-19.59678256 5.73243004 -21.98048555 4.27733815 -25.0625 3.25 C-25.0625 2.26 -25.0625 1.27 -25.0625 0.25 C-17.72589422 -3.25028902 -7.47187691 -3.23314606 0 0 Z " fill="#F88B0C" transform="translate(122.0625,1.75)"/>
<path d="M0 0 C1.10085937 -0.01417969 2.20171875 -0.02835937 3.3359375 -0.04296875 C6.73975276 0.19554087 9.44916186 0.97377334 12.625 2.1875 C11.33760767 6.049677 9.88563622 6.50571699 6.4375 8.5625 C-1.38294867 12.88867846 -1.38294867 12.88867846 -6.3125 19.875 C-6.55749522 22.21518893 -6.55749522 22.21518893 -5.375 24.1875 C0.47658123 23.94368412 3.38395176 22.242391 7.828125 18.46484375 C9.625 17.1875 9.625 17.1875 12.625 17.1875 C12.10926775 24.06392999 9.20340673 28.81669446 4.19921875 33.41796875 C2.33277326 34.95178039 0.4410359 36.45524549 -1.47265625 37.9296875 C-4.38751083 40.13775292 -4.38751083 40.13775292 -6.99609375 42.5703125 C-12.9971035 47.94407162 -12.9971035 47.94407162 -16.71875 48.6015625 C-22.67124802 48.17347189 -28.46463692 45.59466947 -33.046875 41.8046875 C-35.59428929 38.70283599 -35.46262373 35.07215199 -35.375 31.1875 C-33.81117524 20.48365089 -28.59008267 13.54756937 -20.4609375 6.7265625 C-13.99634539 1.95680727 -7.99239111 0.04657571 0 0 Z " fill="#F88B0C" transform="translate(49.375,-0.1875)"/>
<path d="M0 0 C5.33875131 -0.32032508 8.41387843 0.26685684 13 3 C15.7734375 5.69921875 15.7734375 5.69921875 18.375 8.6875 C18.82488281 9.19861328 19.27476563 9.70972656 19.73828125 10.23632812 C20.83395249 11.48352837 21.91819929 12.74074977 23 14 C22.54554036 15.41791408 22.08625056 16.83428046 21.625 18.25 C21.24214844 19.43335938 21.24214844 19.43335938 20.8515625 20.640625 C20.04826333 22.86627958 19.10288338 24.90931672 18 27 C12.6936061 26.58381224 9.70263069 25.89750599 6 22 C2.49941109 16.44256789 -0.13939075 11.98760433 -0.0625 5.375 C-0.05347656 4.37210938 -0.04445313 3.36921875 -0.03515625 2.3359375 C-0.02355469 1.56507812 -0.01195312 0.79421875 0 0 Z " fill="#F88D0C" transform="translate(15,48)"/>
<path d="M0 0 C0.66 0.66 1.32 1.32 2 2 C1.88326385 10.40500282 -1.51808631 18.63098086 -7.55078125 24.51171875 C-10.65417772 26.79716576 -13.20208606 27.4468134 -17 27 C-17.67842139 25.60984189 -18.342229 24.2125473 -19 22.8125 C-19.37125 22.03519531 -19.7425 21.25789063 -20.125 20.45703125 C-21.12204105 17.65730436 -21.44311974 15.94651785 -21 13 C-16.16239888 5.78199198 -9.41648326 -1.34521189 0 0 Z " fill="#F88E0B" transform="translate(143,48)"/>
<path d="M0 0 C0.66 0.66 1.32 1.32 2 2 C1.625 4.625 1.625 4.625 1 7 C-1.3736397 7.50734284 -3.74857425 8.00602386 -6.125 8.5 C-6.79015625 8.64308594 -7.4553125 8.78617188 -8.140625 8.93359375 C-18.35785871 11.03714187 -18.35785871 11.03714187 -22.375 8.5 C-22.91125 8.005 -23.4475 7.51 -24 7 C-23.44921875 4.6171875 -23.44921875 4.6171875 -22 2 C-19.46182852 1.07312239 -17.43556697 0.54063573 -14.8125 0.125 C-13.51957031 -0.11992188 -12.22664062 -0.36484375 -10.89453125 -0.6171875 C-6.98102585 -1.00186506 -3.83218422 -0.84947546 0 0 Z " fill="#FCA305" transform="translate(148,81)"/>
<path d="M0 0 C0.69867188 0.07154297 1.39734375 0.14308594 2.1171875 0.21679688 C7.24504253 0.90857354 9.81271526 2.53481792 13 6.5625 C13 7.2225 13 7.8825 13 8.5625 C7.46254231 11.99863126 0.89051854 10.22225577 -5.234375 9.18359375 C-8.24362295 8.46986187 -9.83770062 7.74050578 -11.9375 5.4375 C-12.288125 4.81875 -12.63875 4.2 -13 3.5625 C-8.80067299 -0.69423968 -5.64526227 -0.85928808 0 0 Z " fill="#FB9D07" transform="translate(22,80.4375)"/>
<path d="M0 0 C1.19367187 -0.02578125 2.38734375 -0.0515625 3.6171875 -0.078125 C7.48534239 0.28370686 9.86167771 1.16537024 13.125 3.25 C13.455 4.24 13.785 5.23 14.125 6.25 C10.91907291 6.7864195 7.71003778 7.30130483 4.5 7.8125 C3.14455078 8.03969727 3.14455078 8.03969727 1.76171875 8.27148438 C-3.00856795 9.02010601 -7.14180332 9.61079405 -11.875 8.25 C-14.25 6.1875 -14.25 6.1875 -15.875 4.25 C-10.38455 0.7422125 -6.51223571 0.08402885 0 0 Z " fill="#F7840E" transform="translate(27.875,95.75)"/>
<path d="M0 0 C0.625 1.875 0.625 1.875 1 4 C-1 6 -1 6 -3.36328125 6.265625 C-11.06618377 6.22481492 -18.42260658 5.36881946 -26 4 C-26 2.68 -26 1.36 -26 0 C-18.75219941 -4.52090532 -7.74905136 -2.47969643 0 0 Z " fill="#FBA006" transform="translate(143,98)"/>
<path d="M0 0 C0 0.99 0 1.98 0 3 C-2.20283698 4.01390853 -4.41098556 5.01104385 -6.625 6 C-7.24246094 6.28617188 -7.85992187 6.57234375 -8.49609375 6.8671875 C-12.50196056 8.6382023 -15.63172366 9.40635129 -20 9 C-22.375 8 -22.375 8 -24 7 C-24 5.68 -24 4.36 -24 3 C-21.13305503 1.90911842 -18.26034443 0.85256601 -15.375 -0.1875 C-14.56675781 -0.49880859 -13.75851563 -0.81011719 -12.92578125 -1.13085938 C-7.59688146 -3.01547028 -4.92649241 -3.41984667 0 0 Z " fill="#F67D10" transform="translate(52,108)"/>
<path d="M0 0 C3.17888672 2.78872155 4.55282147 4.51178748 4.9375 8.75 C5.26045185 13.95567626 4.36187768 17.35768869 2 22 C-0.1875 24 -0.1875 24 -2 25 C-3.5 23.9375 -3.5 23.9375 -5 22 C-5.44441382 16.44482723 -4.36194865 12.19040724 -2.5 7.0625 C-2.26152344 6.37865234 -2.02304688 5.69480469 -1.77734375 4.99023438 C-1.19454118 3.32341903 -0.59862949 1.66119684 0 0 Z " fill="#F7890D" transform="translate(155,58)"/>
<path d="M0 0 C0.804375 0.680625 1.60875 1.36125 2.4375 2.0625 C2.4375 3.0525 2.4375 4.0425 2.4375 5.0625 C0.74752987 6.75247013 -1.31113286 6.31452754 -3.625 6.375 C-8.93904149 6.32656473 -13.36184436 5.47355871 -17.5625 2.0625 C-18.77734375 -0.078125 -18.77734375 -0.078125 -19.5625 -1.9375 C-12.52703405 -4.63193377 -6.48878455 -3.96366792 0 0 Z " fill="#FA9C07" transform="translate(126.5625,109.9375)"/>
<path d="M0 0 C2.4746248 0.33440876 4.458612 0.64268392 6.5625 2.03125 C8.78937333 5.08109825 9.10451809 8.53988094 9.6875 12.1875 C9.88182617 13.31188477 9.88182617 13.31188477 10.08007812 14.45898438 C10.39740538 16.30418359 10.70013291 18.151883 11 20 C6.61840761 18.69703684 3.83583244 17.58934236 0.97265625 13.8515625 C-0.81368634 10.45105492 -1.10133217 6.79995629 -1 3 C-0.67 2.01 -0.34 1.02 0 0 Z " fill="#FA9709" transform="translate(26,118)"/>
<path d="M0 0 C4.57226304 3.93031207 6.45286798 10.33487468 7.32421875 16.171875 C7.42097434 19.65507635 6.97511702 21.03732447 5 24 C1.12787444 22.53126272 -0.18227729 20.67138909 -2 17 C-2.36328125 14.0625 -2.36328125 14.0625 -2.3125 11 C-2.30863281 9.989375 -2.30476562 8.97875 -2.30078125 7.9375 C-1.99464942 4.94774501 -1.2533749 2.71647787 0 0 Z " fill="#F7880D" transform="translate(2,58)"/>
<path d="M0 0 C1.5 1 1.5 1 3 3 C3.53902029 7.6971768 3.45834813 10.02830197 1.4375 14.3125 C-1.56456109 17.62246479 -3.8193327 18.55284593 -8 20 C-7.63504377 13.74540532 -7.04934969 8.53400499 -4 3 C-1.8125 1.0625 -1.8125 1.0625 0 0 Z " fill="#F88B0C" transform="translate(131,118)"/>
<path d="M0 0 C1.875 0.3125 1.875 0.3125 4 1 C6 4 6 4 5.828125 6.015625 C5.63734375 6.75296875 5.4465625 7.4903125 5.25 8.25 C5.05148437 9.03761719 4.85296875 9.82523438 4.6484375 10.63671875 C4.43445313 11.41660156 4.22046875 12.19648437 4 13 C3.80664062 13.70769531 3.61328125 14.41539063 3.4140625 15.14453125 C2.9579459 16.76738088 2.48123625 18.38442117 2 20 C-1 19 -1 19 -2.16796875 17.24609375 C-3.65040285 13.24421766 -3.46839828 9.2020078 -3 5 C-1.5 1.875 -1.5 1.875 0 0 Z " fill="#FB9F06" transform="translate(9,103)"/>
<path d="M0 0 C3 1 3 1 4.75 3.9375 C6.54208293 8.5267494 6.43713259 13.3116494 5 18 C2.94140625 20.30078125 2.94140625 20.30078125 1 22 C-1.14577292 15.16673505 -2.57003892 9.18249035 -2 2 C-1.34 1.34 -0.68 0.68 0 0 Z " fill="#F98F0B" transform="translate(147,102)"/>
<path d="M0 0 C8.58 0 17.16 0 26 0 C25.67 0.66 25.34 1.32 25 2 C22.59115537 2.64750694 20.25824325 3.17062495 17.8125 3.625 C17.15185547 3.7590625 16.49121094 3.893125 15.81054688 4.03125 C5.70424062 5.98666562 5.70424062 5.98666562 1.625 3.625 C1.08875 3.08875 0.5525 2.5525 0 2 C0 1.34 0 0.68 0 0 Z " fill="#F7820F" transform="translate(124,86)"/>
<path d="M0 0 C1.19367187 -0.02578125 2.38734375 -0.0515625 3.6171875 -0.078125 C7.4299138 0.278522 9.83756738 1.33987095 13.125 3.25 C13.125 3.58 13.125 3.91 13.125 4.25 C3.885 4.25 -5.355 4.25 -14.875 4.25 C-9.5708849 0.27191368 -6.55806381 0.08462018 0 0 Z " fill="#FBA106" transform="translate(27.875,95.75)"/>
<path d="M0 0 C0.66 1.32 1.32 2.64 2 4 C-3.51653822 7.42315021 -10.21735898 5.73729444 -16.3046875 4.55078125 C-18.1875 4.0625 -18.1875 4.0625 -21 3 C-21.33 2.34 -21.66 1.68 -22 1 C-14.74 0.67 -7.48 0.34 0 0 Z " fill="#F6800F" transform="translate(33,85)"/>
<path d="M0 0 C8.91 0 17.82 0 27 0 C26.34 1.32 25.68 2.64 25 4 C16.4488728 4.27733386 8.41518047 3.52016163 0 2 C0 1.34 0 0.68 0 0 Z " fill="#F57A11" transform="translate(117,100)"/>
<path d="M0 0 C0 0.66 0 1.32 0 2 C-6.37305598 2.74507544 -12.58311325 3.10349817 -19 3 C-13.99287146 -2.77369219 -6.3103034 -4.48363662 0 0 Z " fill="#FA9A08" transform="translate(52,108)"/>
<path d="M0 0 C6.27 0 12.54 0 19 0 C19 0.99 19 1.98 19 3 C17.30330868 4.69669132 15.19357491 4.21209414 12.875 4.25 C7.79154536 4.22348915 4.4577463 3.3774647 0 1 C0 0.67 0 0.34 0 0 Z " fill="#F47512" transform="translate(110,112)"/>
<path d="M0 0 C0 0.66 0 1.32 0 2 C-8.25 2 -16.5 2 -25 2 C-25 1.34 -25 0.68 -25 0 C-16.50791416 -0.73598077 -8.46904477 -1.29526567 0 0 Z " fill="#F9920A" transform="translate(150,84)"/>
<path d="M0 0 C0.99 0.33 1.98 0.66 3 1 C2.34 4.3 1.68 7.6 1 11 C-2 10 -2 10 -3.25 8.1875 C-4.13786399 5.5978967 -4.08252117 4.49812577 -3 2 C-2.01 1.34 -1.02 0.68 0 0 Z " fill="#F57B11" transform="translate(10,112)"/>
<path d="M0 0 C2.64 0 5.28 0 8 0 C7.25675659 2.39489543 6.52942646 3.70777616 4.30859375 4.93359375 C2.55926499 5.67219923 0.78065851 6.34049685 -1 7 C-0.67 4.69 -0.34 2.38 0 0 Z " fill="#F47014" transform="translate(124,131)"/>
<path d="M0 0 C1.5 1.25 1.5 1.25 3 3 C3 4.32 3 5.64 3 7 C-0.05263664 7.98120464 -1.94736336 7.98120464 -5 7 C-4.60196439 4.11424181 -4.20990931 3.17810487 -1.9375 1.25 C-1.298125 0.8375 -0.65875 0.425 0 0 Z " fill="#FCA505" transform="translate(131,118)"/>
<path d="M0 0 C-12.72016461 2.53497942 -12.72016461 2.53497942 -17 2 C-18.65625 0.48046875 -18.65625 0.48046875 -20 -1 C-17.22964291 -1.22162857 -14.45961005 -1.42779249 -11.6875 -1.625 C-10.90181641 -1.68945312 -10.11613281 -1.75390625 -9.30664062 -1.8203125 C-8.54931641 -1.871875 -7.79199219 -1.9234375 -7.01171875 -1.9765625 C-6.31522217 -2.02893066 -5.61872559 -2.08129883 -4.90112305 -2.13525391 C-3 -2 -3 -2 0 0 Z " fill="#F47014" transform="translate(145,89)"/>
<path d="M0 0 C7.26 0 14.52 0 22 0 C22 0.33 22 0.66 22 1 C18.89886548 1.42261828 15.79423176 1.80841143 12.6875 2.1875 C11.80642578 2.30802734 10.92535156 2.42855469 10.01757812 2.55273438 C8.74624023 2.70258789 8.74624023 2.70258789 7.44921875 2.85546875 C6.27879028 3.00471802 6.27879028 3.00471802 5.0847168 3.15698242 C3 3 3 3 0 0 Z " fill="#F36F14" transform="translate(15,102)"/>
<path d="M0 0 C6.6 0 13.2 0 20 0 C15.62858697 3.27855978 15.08991433 3.3533034 10 2.8125 C8.453125 2.66748047 8.453125 2.66748047 6.875 2.51953125 C4 2 4 2 0 0 Z " fill="#F46D14" transform="translate(15,88)"/>
<path d="M0 0 C1.134375 0.020625 2.26875 0.04125 3.4375 0.0625 C3.7675 2.3725 4.0975 4.6825 4.4375 7.0625 C0.08214931 5.90107315 -2.20869703 4.98550495 -4.5625 1.0625 C-3.5625 0.0625 -3.5625 0.0625 0 0 Z " fill="#F36F14" transform="translate(32.5625,130.9375)"/>
<path d="M0 0 C6.93 0 13.86 0 21 0 C16.48676171 3.38492872 16.48676171 3.38492872 12.25 3.25 C11.38117187 3.22421875 10.51234375 3.1984375 9.6171875 3.171875 C6.04415058 2.9372278 2.54213794 2.52476118 -1 2 C-0.67 1.34 -0.34 0.68 0 0 Z " fill="#F88C0C" transform="translate(31,110)"/>
<path d="M0 0 C-2.35302007 2.35302007 -3.27435295 2.39392208 -6.5 2.75 C-7.2940625 2.84796875 -8.088125 2.9459375 -8.90625 3.046875 C-11 3 -11 3 -13 1 C-8.59085217 -0.10228696 -4.51617599 -0.07654536 0 0 Z " fill="#F36D14" transform="translate(43,114)"/>
<path d="M0 0 C0.53625 0.37125 1.0725 0.7425 1.625 1.125 C-0.375 3.125 -0.375 3.125 -4 3.25 C-5.11375 3.20875 -6.2275 3.1675 -7.375 3.125 C-7.705 2.465 -8.035 1.805 -8.375 1.125 C-2.95961538 -1.09038462 -2.95961538 -1.09038462 0 0 Z " fill="#FDAB03" transform="translate(48.375,105.875)"/>
<path d="M0 0 C3.625 0.375 3.625 0.375 7 1 C7 1.66 7 2.32 7 3 C4.03 2.67 1.06 2.34 -2 2 C-1.34 1.34 -0.68 0.68 0 0 Z " fill="#FEAF01" transform="translate(141,80)"/>
</svg>
